<svg width="173" height="56" fill="none" xmlns="http://www.w3.org/2000/svg"><g clip-path="url(#clip0_5_8)" fill="#D52A20"><path d="M54.297 3.09c-1.513 3.01-5.255 11.643-6.449 23.049-.478 3.88.08 6.178-1.433 7.05l.16.474c2.467-.95 4.935-1.663 7.403-2.376l-.08-.554c-1.034-.08-.795-4.12-.795-5.94 0-1.981.238-4.595 3.503-6.02.557-.238 1.194-.476 1.91-.555v8.554c0 1.822-.159 2.535-1.114 3.09l.159.633c2.468-.554 4.936-1.109 7.484-1.584l-.08-.634c-1.035 0-1.115-1.03-1.115-2.534V8c.08-3.881-.557-6.337 2.468-7.05V.318H52.545V.95c1.194.079 2.07.95 1.752 2.138zm4.14 2.85v7.921c-1.035.159-2.866.713-3.822 1.268.876-3.09 2.15-6.495 3.822-9.188zM103.736 3.802v21.07c0 .791-.239 2.296-1.114 2.534l-.08.634c5.414.713 10.35 1.584 15.286 2.93l.159-.554c-.08-1.188-.478-2.456-.716-3.723-.478.713-2.389.792-3.822.396-3.423-.95-4.299-1.663-4.617-3.327V9.822c1.353-.792 3.264-.792 6.448 1.03V6.177h-6.448V3.802c1.831-.713 4.697-.475 7.563.475.398-1.188 1.035-2.138 1.433-3.326V.317h-15.923V.95c1.513.554 1.752 1.267 1.831 2.851zM87.256 3.802v20.04c0 1.425-.16 2.297-.955 2.614v.633c5.015 0 10.11.238 15.126.792l.08-.633-1.115-3.486c-1.751 1.98-8.04 1.03-8.12-1.98V9.742c1.353-.791 3.264-.791 6.448 1.03V6.1h-6.369V3.723c2.468-.792 5.016-.238 7.563.475.399-1.188 1.035-2.139 1.433-3.327V.317H85.425V.95c1.592.554 1.751 1.267 1.83 2.851zM120.216 3.802V28.04c0 1.188-.159 2.534-1.433 2.534l-.239.555a93.136 93.136 0 0115.127 5.465c1.433.475 1.433-2.218 1.273-3.485-.955-16.08-3.901-17.663-6.926-22.02 4.777-4.831 4.458-8.95 3.025-10.297-.796-.633-1.91-.475-3.105-.475h-9.553V.95c1.751.396 1.831 1.346 1.831 2.851zm5.095.238c.159-1.347 2.866-1.505 3.344 0 .159 2.772-1.274 5.307-3.344 6.812V4.04zm0 9.505c.557-.317.717-.634 1.194-.95 3.344 4.197 3.822 9.662 4.061 15.049.079 1.188.477 3.168-.956 3.485-1.114-.08-4.14-.555-4.299-1.664v-15.92z"/><path d="M136.378 3.802v29.861c0 1.98-.318 3.09-1.433 2.852l-.239.554c4.299 2.06 8.997 4.594 12.659 7.763 2.468 1.346 4.14-1.11 4.14-5.782 0-8.159-2.548-14.416-7.086-20.99-1.592-2.298-2.866-3.882-2.946-4.753V3.881c.16-1.742 1.274-2.534 2.946-2.93h.159V.317h-12.34c0 .871-.159.158.876 3.96.557-.713 2.229-1.109 3.264-.475zm5.095 13.465a36.637 36.637 0 012.946 5.466c3.025 7.208 2.946 14.02 2.946 15.524 0 .872-.239 1.11-.876 1.189-.955 0-3.742-1.505-4.936-3.169-.08-5.703-.08-14.099-.08-19.01zM65.76 28.119l.16.634c2.786-.476 5.573-.872 8.519-1.11l-.08-.633c-.876-.238-.637-1.663-.637-2.535 0-5.544.478-9.188 1.99-12.831 1.274 3.564 1.831 7.208 1.99 12.514 0 .872.16 2.297-.716 2.694v.633c2.627-.237 5.334-.317 8.041-.396v-.633c-1.035-.159-1.114-1.426-1.513-2.535-1.91-8.08-2.308-12.04-4.219-15.763 3.423-4.514 1.831-6.653 5.334-7.207V.317h-7.722V.95c.477 0 .796.237.875 1.03-.08 2.217-.398 3.247-2.07 4.752-1.672-1.505-1.99-2.535-2.07-4.753 0-.792.478-.871.876-1.03V.318h-7.802V.95c1.194.237 2.23.87 2.787 2.455.557 1.822 1.512 3.406 2.547 4.752-1.592 3.406-2.15 7.842-4.538 17.11-.398 1.425-.398 2.296-1.751 2.85z"/><path d="M26.272 49.822a4.95 4.95 0 01-.238-1.505c0-3.327 3.423-5.624 6.767-5.624 1.99 0 3.98.555 5.254 2.139 13.057-7.05 26.67-11.802 48.326-11.802 14.728 0 29.457 2.693 41.08 8.079 12.022 5.94 20.381 14.178 30.651 14.178 9.872 0 14.808-7.525 14.808-14.97-.079-8.555-6.687-14.495-13.056-14.495-2.627 0-6.608 1.346-6.608 3.881 0 2.851 4.379 6.653 4.379 8.95 0 1.189-.558 1.98-1.115 2.456-.717.713-1.751 1.822-1.751 2.772 0 .713.716 1.426 1.512 1.426.478 0 1.115-.238 1.592-1.109 1.035-1.663 1.354-3.089 1.354-4.277 0-1.901-.796-3.327-.796-4.673 0-2.297 2.547-3.169 4.219-3.169 4.697 0 6.369 6.891 6.369 9.11 0 6.336-5.811 10.85-12.34 10.85-7.085 0-16.321-8.633-28.899-14.098-12.341-5.387-26.591-7.921-39.25-7.921-16.798 0-30.492 2.218-45.539 8.95-1.83.713-3.821 1.268-5.652 1.268-2.866 0-5.255-1.347-5.732-5.466V25.98c0-4.831 0-10.06-.08-13.544.876 3.01 3.184 10.614 4.06 13.703 1.354-4.594 2.468-9.188 4.3-13.703v17.346c-.24 2.93-1.513 5.545-2.548 7.287l.159.555c2.548-1.426 5.493-2.693 8.598-3.881l-.159-.476c-.637-.237-1.035-.554-1.035-2.851V3.723c.08-1.743 1.672-2.456 3.821-2.93V.316H37.976V.95c1.114.316 1.512.792 1.512 1.346 0 .396-.159.95-.398 1.505-1.194 3.327-2.309 6.654-3.503 9.98-.876-3.326-1.751-6.574-2.627-9.9-.16-.634-.239-1.11-.239-1.506 0-.713.398-1.03 1.274-1.425V.317H22.45V.95c1.592.396 3.264 1.188 4.14 2.297.16.237.318.554.318.87.08.872.08 1.981.08 3.248 0 12.832-3.423 44.99-16.082 44.99-3.901 0-7.882-3.405-7.882-8.316 0-5.228 3.901-8.713 6.688-9.268 1.353-.316 2.627.713 2.627 2.06 0 1.98-1.194 5.07-1.99 8.475-.08.317-.16.713-.16 1.109 0 1.505.717 2.93 2.07 2.93.876 0 1.513-.395 1.513-1.346 0-.792-.478-1.742-1.433-2.297a3.093 3.093 0 01-.318-1.426c0-1.505 1.035-3.089 3.105-4.91 2.945-2.298 4.458-5.307 4.458-7.525 0-1.743-.956-3.01-3.025-3.01C12.977 28.752 0 34.059 0 44.594 0 51.248 5.175 56 11.624 56c5.254 0 10.588-2.851 14.648-6.178z"/></g><defs><clipPath id="clip0_5_8"><path fill="#fff" d="M0 0h173v56H0z"/></clipPath></defs></svg>